<?xml version="1.0" standalone="no"?>
<!DOCTYPE svg PUBLIC "-//W3C//DTD SVG 20010904//EN"
 "http://www.w3.org/TR/2001/REC-SVG-20010904/DTD/svg10.dtd">
<svg version="1.0" xmlns="http://www.w3.org/2000/svg"
 width="900.000000pt" height="980.000000pt" viewBox="0 0 900.000000 980.000000"
 preserveAspectRatio="xMidYMid meet">

<g transform="translate(0.000000,980.000000) scale(0.100000,-0.100000)"
fill="#000000" stroke="none">
<path d="M3814 9789 c-232 -8 -293 -17 -402 -60 -220 -88 -368 -254 -431 -489
-27 -99 -51 -258 -51 -342 0 -62 -2 -68 -22 -72 -13 -3 -378 -7 -813 -10 -434
-3 -817 -10 -849 -15 -135 -22 -307 -154 -396 -305 l-45 -75 -210 -1 -210 0 3
-585 2 -585 295 0 295 0 0 -2047 c0 -1127 3 -2628 6 -3338 l7 -1290 44 -90
c25 -49 64 -117 88 -150 94 -132 260 -258 380 -290 148 -38 269 -40 2995 -40
2726 0 2846 2 2995 40 81 21 182 83 267 163 86 82 142 159 203 281 l46 93 6
3334 6 3334 294 0 293 0 0 585 0 585 -207 0 -208 1 -45 75 c-57 97 -185 221
-273 264 -35 17 -95 36 -133 42 -41 6 -387 13 -869 17 l-800 6 -8 114 c-26
393 -154 630 -409 756 -145 71 -212 84 -503 95 -282 11 -1023 11 -1341 -1z
m1433 -389 c310 -28 399 -126 419 -467 l7 -113 -1173 0 -1173 0 7 118 c20 337
114 440 421 461 165 12 1363 12 1492 1z m2512 -1037 c58 -64 65 -86 82 -223
l12 -98 183 -7 184 -7 0 -189 0 -189 -3720 0 -3720 0 0 190 0 190 58 0 c31 0
114 3 183 7 l126 6 12 97 c17 137 24 159 82 223 l51 57 3208 0 3208 0 51 -57z
m-124 -4400 l-7 -3288 -43 -70 c-55 -88 -81 -113 -180 -170 l-80 -45 -2824 0
-2824 0 -74 41 c-100 55 -134 87 -187 172 l-44 72 -7 3288 -7 3287 3142 0
3142 0 -7 -3287z"/>
<path d="M2150 3938 c0 -1393 3 -2584 7 -2645 l6 -113 577 0 577 0 6 767 c4
421 7 1612 7 2645 l0 1878 -590 0 -590 0 0 -2532z m780 -118 l0 -2250 -190 0
-190 0 0 2250 0 2250 190 0 190 0 0 -2250z"/>
<path d="M3910 4232 c0 -1231 3 -2422 7 -2645 l6 -407 577 0 577 0 6 467 c4
256 7 1447 7 2645 l0 2178 -590 0 -590 0 0 -2238z m780 -412 l0 -2250 -190 0
-190 0 0 2250 0 2250 190 0 190 0 0 -2250z"/>
<path d="M5670 4493 c0 -1088 3 -2278 7 -2645 l6 -668 577 0 577 0 6 182 c4
99 7 1290 7 2645 l0 2463 -590 0 -590 0 0 -1977z m780 -673 l0 -2250 -190 0
-190 0 0 2250 0 2250 190 0 190 0 0 -2250z"/>
</g>
</svg>
