<?xml version="1.0" standalone="no"?>
<!DOCTYPE svg PUBLIC "-//W3C//DTD SVG 20010904//EN"
 "http://www.w3.org/TR/2001/REC-SVG-20010904/DTD/svg10.dtd">
<svg version="1.0" xmlns="http://www.w3.org/2000/svg"
 width="1440.000000pt" height="1440.000000pt" viewBox="0 0 1440.000000 1440.000000"
 preserveAspectRatio="xMidYMid meet">

<g transform="translate(0.000000,1440.000000) scale(0.100000,-0.100000)"
fill="#000000" stroke="none">
<path d="M13475 8414 c-206 -58 -371 -235 -406 -437 -34 -202 52 -361 231
-428 88 -33 227 -33 315 -1 128 47 250 153 309 269 60 120 73 258 34 373 -29
87 -116 177 -203 211 -74 28 -205 34 -280 13z m238 -148 c68 -33 107 -88 131
-182 16 -61 16 -70 0 -123 -19 -65 -102 -211 -121 -211 -7 0 -23 24 -35 53
-12 28 -32 71 -44 93 l-22 42 26 12 c44 20 92 101 92 155 0 87 -73 125 -241
125 -111 0 -112 0 -88 19 34 26 135 51 195 48 30 -2 74 -15 107 -31z m-373
-83 c0 -10 -6 -38 -14 -63 -7 -25 -24 -118 -37 -208 -19 -132 -26 -162 -39
-160 -23 5 -62 133 -57 190 8 97 147 325 147 241z m228 -79 c15 -4 22 -14 22
-30 0 -29 -8 -33 -70 -41 l-50 -6 0 35 c0 19 3 38 7 41 8 9 60 9 91 1z m-53
-289 c41 -86 48 -95 73 -95 41 0 73 -11 69 -23 -4 -14 -130 -47 -177 -47 -19
0 -66 7 -104 15 -103 22 -116 43 -31 53 53 6 59 13 75 102 14 84 16 90 34 90
9 0 33 -38 61 -95z"/>
<path d="M2120 8290 c-122 -26 -297 -106 -344 -159 -27 -30 -36 -18 -36 47 0
31 -5 64 -10 72 -8 13 -51 15 -263 18 l-254 3 -22 -128 c-12 -70 -37 -218 -56
-328 -20 -110 -53 -301 -75 -425 -79 -459 -111 -641 -155 -885 -110 -608 -140
-804 -127 -817 10 -10 86 -15 285 -19 150 -4 273 -6 275 -4 1 1 7 24 11 51 5
27 25 146 45 264 21 118 41 231 46 250 5 19 17 86 26 148 9 61 21 112 26 112
6 0 29 -17 53 -38 47 -41 120 -80 205 -109 44 -14 85 -18 205 -18 137 1 157 3
228 29 253 88 470 285 601 544 110 217 169 554 140 795 -23 190 -68 297 -172
409 -76 80 -142 126 -237 161 -134 50 -248 58 -395 27z m51 -484 c91 -32 161
-143 167 -263 9 -166 -45 -397 -125 -538 -37 -65 -112 -134 -190 -172 -126
-62 -244 -45 -328 49 -68 75 -80 115 -80 268 1 253 67 441 196 558 50 45 112
83 159 98 48 16 157 16 201 0z"/>
<path d="M4062 8295 c-77 -18 -129 -43 -196 -93 -46 -36 -60 -42 -67 -31 -5 8
-9 20 -9 27 0 7 -7 26 -15 43 l-16 29 -252 -2 -252 -3 -12 -80 c-7 -44 -20
-125 -28 -180 -16 -105 -79 -465 -121 -695 -14 -74 -34 -187 -44 -250 -10 -63
-37 -221 -61 -350 -23 -129 -44 -253 -46 -276 -8 -68 -7 -69 302 -72 l273 -3
6 58 c7 59 70 430 106 623 41 217 103 456 136 522 37 75 92 144 139 176 35 24
49 27 120 27 72 0 86 -3 136 -32 67 -39 103 -42 131 -10 12 13 58 95 103 183
45 87 94 183 109 212 16 28 25 59 22 68 -8 20 -144 83 -231 105 -81 21 -157
23 -233 4z"/>
<path d="M5210 8304 c-232 -22 -410 -79 -525 -168 -75 -57 -180 -176 -232
-263 -63 -103 -68 -138 -23 -171 16 -12 38 -22 48 -22 20 0 180 -30 292 -54
145 -32 131 -35 168 37 65 127 145 172 302 172 157 -1 220 -38 220 -129 0 -69
-10 -80 -106 -108 -49 -15 -107 -29 -129 -33 -50 -8 -203 -40 -320 -67 -378
-87 -533 -184 -637 -398 -51 -104 -64 -154 -73 -276 -16 -196 78 -357 260
-445 106 -51 182 -63 355 -56 107 4 151 10 211 30 88 29 188 75 243 112 51 35
66 27 66 -32 0 -82 -13 -78 279 -78 240 0 261 2 280 19 25 23 28 71 7 121 -22
52 -30 188 -16 285 6 47 40 243 75 435 84 462 87 489 83 640 -4 153 -17 190
-102 275 -85 85 -181 130 -341 156 -86 14 -311 25 -385 18z m160 -1117 c0 -33
-23 -137 -43 -191 -53 -150 -279 -276 -425 -237 -79 22 -130 122 -103 204 17
52 75 103 149 131 61 24 101 34 322 85 107 24 100 23 100 8z"/>
<path d="M7380 8304 c-167 -31 -294 -79 -391 -149 -27 -19 -51 -35 -53 -35 -2
0 -7 32 -11 70 l-7 70 -61 0 c-33 0 -149 1 -257 3 l-196 3 -43 -231 c-23 -126
-51 -275 -61 -330 -10 -55 -28 -158 -40 -230 -11 -71 -27 -161 -35 -200 -8
-38 -19 -97 -24 -130 -6 -33 -15 -87 -21 -120 -6 -33 -15 -85 -20 -115 -5 -30
-23 -131 -40 -225 -17 -93 -34 -202 -37 -242 l-6 -72 34 -6 c19 -3 146 -7 284
-8 l250 -2 16 80 c17 81 50 262 114 630 94 527 119 598 254 701 53 41 170 78
223 71 20 -3 53 -15 72 -26 65 -41 66 -140 6 -476 -18 -97 -49 -271 -69 -390
-12 -66 -25 -142 -30 -170 -5 -27 -15 -81 -21 -120 -7 -38 -18 -103 -26 -144
-20 -107 -19 -130 10 -141 29 -11 502 -26 537 -17 20 5 24 13 27 48 1 23 13
103 26 178 14 75 41 231 60 346 107 620 135 708 255 817 61 55 155 98 214 98
67 0 133 -51 147 -115 9 -40 -13 -227 -50 -435 -48 -268 -83 -469 -90 -520 -4
-30 -15 -93 -24 -140 -45 -233 -45 -247 -13 -259 13 -5 142 -11 287 -12 l264
-4 47 275 c27 151 57 322 68 380 45 229 102 592 113 710 9 109 9 136 -6 209
-19 94 -32 122 -84 193 -61 81 -164 142 -287 169 -123 26 -329 9 -430 -36 -16
-7 -52 -23 -79 -34 -64 -27 -150 -84 -199 -130 l-39 -36 -16 25 c-63 95 -174
175 -284 206 -55 15 -214 26 -258 18z"/>
<path d="M10090 8304 c-217 -18 -358 -56 -487 -131 -181 -106 -294 -259 -330
-445 -19 -104 -13 -222 16 -300 40 -103 164 -215 284 -254 29 -9 57 -20 62
-24 18 -14 167 -57 345 -99 193 -47 260 -68 260 -82 0 -5 6 -9 14 -9 19 0 27
-26 17 -53 -36 -93 -196 -157 -361 -144 -141 11 -212 63 -237 172 -20 87 -36
105 -95 105 -28 0 -107 -9 -177 -20 -69 -11 -173 -28 -231 -37 -58 -9 -108
-19 -112 -22 -10 -9 27 -187 51 -250 58 -144 196 -277 341 -327 152 -52 197
-59 425 -59 237 0 304 9 462 61 161 54 325 176 416 311 87 129 117 226 117
380 0 112 -17 173 -67 242 -78 109 -285 205 -593 275 -155 36 -329 92 -360
115 -21 17 -23 23 -15 47 18 49 86 81 202 95 84 11 114 10 170 -1 73 -14 137
-55 149 -94 3 -12 15 -42 26 -68 19 -45 23 -48 57 -48 20 0 68 7 106 15 39 9
93 20 122 25 29 5 90 16 135 24 46 8 100 18 121 21 42 7 41 -5 11 125 -58 259
-204 389 -487 435 -94 15 -282 25 -357 19z"/>
<path d="M12120 8304 c-14 -2 -59 -9 -100 -15 -218 -32 -450 -144 -609 -293
-117 -109 -248 -318 -305 -486 -47 -140 -61 -232 -61 -410 0 -194 11 -248 81
-388 46 -91 117 -175 203 -240 39 -29 171 -91 236 -110 225 -65 540 -53 719
27 152 69 203 98 302 176 292 228 454 566 454 944 0 143 -14 225 -55 322 -58
138 -180 282 -299 353 -152 91 -401 144 -566 120z m157 -519 c58 -39 106 -92
136 -154 28 -59 31 -75 31 -156 0 -108 -17 -201 -55 -302 -59 -158 -140 -253
-275 -320 -64 -31 -88 -37 -158 -41 -72 -4 -89 -1 -137 21 -63 28 -121 88
-152 155 -18 40 -22 65 -22 172 0 244 81 436 232 553 70 53 94 66 153 83 61
18 213 11 247 -11z"/>
<path d="M5880 5946 c-84 -24 -159 -79 -186 -137 -43 -89 -48 -110 -52 -196
-10 -220 87 -347 286 -374 103 -14 202 4 294 53 l63 33 3 148 3 147 -128 -1
c-160 -1 -177 -5 -181 -45 -2 -17 2 -42 7 -57 10 -26 13 -27 86 -27 72 0 75
-1 75 -23 0 -83 -182 -135 -274 -78 -20 13 -36 29 -36 37 0 8 -4 14 -10 14
-14 0 -42 103 -42 155 0 66 27 147 59 177 36 34 122 62 166 54 34 -6 51 -19
100 -75 29 -33 42 -35 121 -25 56 8 58 19 16 95 -37 68 -64 94 -120 115 -60
21 -193 27 -250 10z"/>
<path d="M7203 5940 c-113 -37 -204 -157 -218 -286 -10 -96 18 -226 63 -294
30 -45 50 -61 107 -90 67 -34 73 -35 180 -35 93 1 116 4 150 22 158 85 229
281 167 463 -29 84 -65 135 -125 176 -60 41 -102 54 -192 60 -52 3 -86 -1
-132 -16z m189 -129 c72 -28 117 -110 118 -212 0 -112 -42 -193 -117 -225 -39
-17 -65 -17 -118 -3 -108 30 -166 196 -116 328 19 52 27 61 75 99 31 24 113
31 158 13z"/>
<path d="M7902 5936 c-76 -26 -131 -76 -170 -155 -25 -53 -27 -64 -27 -191 0
-153 12 -193 78 -262 49 -50 77 -67 139 -84 146 -39 279 4 348 113 41 64 40
100 -2 118 -18 7 -49 16 -69 20 -35 7 -37 5 -48 -27 -24 -73 -100 -114 -181
-97 -104 22 -157 223 -92 350 32 65 79 99 134 99 53 0 89 -21 123 -70 28 -41
30 -42 74 -35 78 10 101 16 101 26 0 18 -48 104 -72 130 -37 39 -71 59 -130
75 -73 19 -132 16 -206 -10z"/>
<path d="M8557 5937 c-51 -18 -78 -35 -108 -68 -91 -99 -114 -178 -98 -337 11
-102 40 -163 108 -224 63 -57 118 -73 241 -72 115 1 168 22 242 97 65 66 92
150 86 275 -6 117 -33 185 -101 251 -95 94 -239 124 -370 78z m211 -131 c116
-61 145 -260 55 -378 -35 -45 -81 -68 -135 -68 -50 0 -125 34 -133 61 -4 10
-10 19 -15 19 -9 0 -35 82 -44 137 -7 40 26 150 55 187 12 15 35 33 53 41 41
18 130 19 164 1z"/>
<path d="M11275 5939 c-145 -50 -238 -217 -214 -387 14 -100 26 -135 62 -189
74 -107 213 -155 356 -122 42 9 98 44 134 84 29 31 59 94 55 117 -4 26 -67 50
-118 46 -29 -2 -36 -7 -38 -28 -8 -59 -95 -109 -165 -96 -85 16 -135 121 -125
265 9 129 58 186 160 186 56 0 62 -2 91 -36 18 -19 37 -43 42 -52 9 -16 17
-16 87 -5 71 11 77 14 72 33 -22 75 -106 166 -171 185 -73 22 -163 21 -228 -1z"/>
<path d="M5202 5928 c-5 -7 -13 -24 -17 -38 -4 -14 -36 -98 -71 -187 -35 -90
-64 -166 -64 -170 -1 -5 -9 -26 -20 -48 -11 -22 -19 -44 -20 -49 0 -15 -51
-140 -62 -153 -20 -24 -2 -35 64 -40 83 -5 99 8 118 95 l13 62 141 0 141 0 17
-58 c24 -82 36 -94 96 -100 68 -6 106 4 99 26 -9 27 -76 192 -98 239 -10 24
-19 45 -19 48 0 16 -145 352 -158 368 -19 21 -143 25 -160 5z m118 -275 c11
-37 24 -71 29 -77 5 -6 12 -21 15 -33 7 -23 6 -23 -73 -23 -95 0 -94 -1 -56
99 41 106 45 112 55 106 5 -3 19 -36 30 -72z"/>
<path d="M6362 5594 l3 -345 72 -5 72 -4 3 142 3 143 42 -1 c60 -1 98 -35 184
-163 l74 -110 52 -7 c68 -8 127 2 119 21 -11 30 -130 202 -165 238 -30 31 -33
39 -21 47 8 5 22 10 31 10 23 0 78 56 95 96 17 41 18 113 2 151 -21 48 -66
100 -102 117 -28 13 -72 16 -250 16 l-216 0 2 -346z m351 215 c77 -21 87 -123
15 -148 -17 -6 -70 -11 -118 -11 -99 0 -100 0 -100 92 0 76 2 78 89 78 42 0
93 -5 114 -11z"/>
<path d="M9077 5804 c-9 -173 -9 -308 0 -451 l6 -113 53 0 c29 0 58 2 66 5 10
4 13 51 12 233 l-2 227 28 -90 c44 -142 78 -266 87 -315 l8 -45 55 -7 c94 -13
107 -6 120 60 6 31 17 77 25 102 7 25 28 97 45 160 35 125 55 166 43 85 -5
-28 -8 -131 -8 -230 l0 -180 73 -3 72 -4 0 352 0 351 -117 -3 -118 -3 -3 -35
c-2 -27 -68 -282 -98 -378 -6 -20 -24 -4 -24 21 0 12 -7 47 -16 77 -8 30 -24
89 -36 130 -12 41 -26 100 -33 130 l-12 55 -110 3 -110 3 -6 -137z"/>
<path d="M9830 5593 l0 -348 270 0 270 0 0 63 0 62 -190 0 -190 0 0 85 0 85
170 0 170 0 0 65 0 65 -169 0 -169 0 -7 66 c-5 51 -4 69 7 76 7 5 88 7 191 5
l177 -5 0 64 0 64 -265 0 -265 0 0 -347z"/>
<path d="M10430 5590 l0 -351 76 3 76 3 2 65 c1 36 3 100 4 144 l2 79 40 -6
c21 -3 52 -14 68 -26 28 -19 128 -150 167 -218 12 -20 29 -33 48 -37 46 -9
145 -7 152 3 7 13 -115 194 -166 246 -21 23 -39 44 -39 47 0 4 18 12 39 18 54
14 97 65 111 134 14 69 1 120 -48 176 -58 69 -65 70 -312 70 l-220 0 0 -350z
m358 219 c61 -21 81 -91 37 -134 -21 -22 -33 -25 -92 -25 -37 0 -84 -3 -104
-6 l-36 -6 -7 55 c-4 30 -4 71 -1 91 l7 36 83 0 c45 0 96 -5 113 -11z"/>
<path d="M11740 5593 l0 -350 157 1 157 1 25 78 25 77 136 0 136 0 24 -77 25
-78 83 -3 c68 -2 82 0 82 13 0 8 -18 54 -39 102 -36 80 -104 245 -151 363 -52
132 -85 206 -94 212 -6 4 -41 8 -77 8 l-65 0 -22 -48 c-12 -27 -22 -51 -22
-55 0 -3 -11 -31 -25 -61 -14 -30 -25 -58 -25 -61 0 -4 -14 -39 -31 -78 -18
-40 -51 -123 -75 -184 -23 -62 -51 -123 -61 -137 -19 -23 -19 -18 -15 295 l4
319 -23 0 c-13 0 -48 3 -76 6 l-53 7 0 -350z m555 -11 c14 -29 25 -55 25 -57
0 -3 -37 -5 -81 -5 -79 0 -81 1 -76 23 9 41 48 142 65 167 l16 25 13 -50 c8
-27 25 -74 38 -103z"/>
<path d="M12620 5933 c0 -5 -1 -132 -4 -283 -2 -151 -1 -305 1 -342 l6 -66
244 1 244 2 -3 60 -3 60 -167 3 c-134 2 -167 5 -172 17 -3 8 -4 133 -3 279 l2
264 -35 6 c-50 8 -110 7 -110 -1z"/>
<path d="M4934 5046 c-3 -8 -4 -29 -2 -48 l3 -33 4068 0 4068 0 -3 45 -3 45
-4063 3 c-3483 2 -4063 0 -4068 -12z"/>
</g>
</svg>
